<svg width="144" height="25" viewBox="0 0 144 25" fill="none" xmlns="http://www.w3.org/2000/svg">
<path fill-rule="evenodd" clip-rule="evenodd" d="M58.0028 4.10884V0H53.2405V4.10884H58.0028ZM41.8994 20.3997C43.535 20.3997 44.9922 19.8429 46.1347 18.8803L46.5908 19.9241H50.1698V0.792094L45.3884 0.792093V6.38308C44.3821 5.75732 43.1959 5.40721 41.8994 5.40721C37.5908 5.40721 34.5217 8.52769 34.5217 12.896C34.5217 17.2644 37.5908 20.3997 41.8994 20.3997ZM7.38999 20.3849C9.02088 20.3849 10.477 19.8476 11.6269 18.9152L12.0411 19.9093H15.78V5.85311L12.1753 5.85285L11.6804 6.93986C10.521 5.98222 9.04376 5.42934 7.38999 5.42934C3.09644 5.42934 0.0273438 8.52769 0.0273438 12.8809C0.0273438 17.2493 3.09644 20.3849 7.38999 20.3849ZM8.03668 16.098C6.22507 16.098 4.89348 14.7278 4.89348 12.8921C4.89348 11.0677 6.21415 9.69748 8.03668 9.69748C9.84828 9.69748 11.1799 11.0677 11.1799 12.8921C11.1799 14.7278 9.84828 16.098 8.03668 16.098ZM32.4815 13.8899C32.4815 17.823 29.719 20.3849 25.5713 20.3849C21.4234 20.3849 18.6458 17.823 18.6458 13.8899V5.86794H23.4823V13.6793C23.4823 15.163 24.279 16.0355 25.5713 16.0355C26.8634 16.0355 27.645 15.1482 27.645 13.6793V5.86794H32.4815V13.8899ZM39.4032 12.8963C39.4032 14.7317 40.7347 16.1128 42.5464 16.1128C44.358 16.1128 45.6896 14.7317 45.6896 12.8963C45.6896 11.0607 44.358 9.67952 42.5464 9.67952C40.7347 9.67952 39.4032 11.0607 39.4032 12.8963ZM58.04 5.86768V19.9239H53.2035V5.86768H58.04ZM68.1369 20.3849C72.7001 20.3849 76.0094 17.2384 76.0094 12.896C76.0094 8.53888 72.7001 5.40747 68.1369 5.40747C63.5588 5.40747 60.2643 8.53888 60.2643 12.896C60.2643 17.2384 63.5588 20.3849 68.1369 20.3849ZM65.1086 12.8963C65.1086 14.7546 66.3734 16.0355 68.1369 16.0358C69.9004 16.0358 71.1651 14.7548 71.1651 12.8966C71.1651 11.0492 69.9004 9.75709 68.1369 9.75709C66.3734 9.75709 65.1086 11.038 65.1086 12.8963ZM83.0252 25V19.4663C84.0162 20.0655 85.1785 20.3997 86.4482 20.3997C90.7417 20.3997 93.8108 17.2753 93.8108 12.896C93.8108 8.51676 90.7417 5.40721 86.4482 5.40721C84.7796 5.40721 83.2935 5.98508 82.1388 6.98463L81.5329 5.86794H78.2438V25H83.0252ZM82.658 12.8958C82.658 14.7424 83.9896 16.1126 85.8012 16.1126C87.6017 16.1126 88.9444 14.7424 88.9444 12.8958C88.9444 11.0492 87.6128 9.679 85.8012 9.679C83.9896 9.679 82.658 11.0492 82.658 12.8958ZM100.866 19.9241V12.4181C100.866 10.6143 101.779 9.57462 103.242 9.57462C104.504 9.57462 105.073 10.4011 105.073 12.0222V19.9241H109.91V11.4597C109.91 7.81629 107.838 5.45225 104.614 5.45225C103.215 5.45225 101.9 5.95931 100.866 6.79279V0.792093H96.0296V19.9241H100.866ZM117.601 0V4.10884H112.839V0H117.601ZM117.638 5.86768H112.802V19.9239H117.638V5.86768ZM125.517 0.792093V19.9241H120.68V0.792093H125.517ZM135.368 20.3851C138.891 20.3851 141.731 18.3808 142.719 15.1729H137.906C137.441 15.9957 136.498 16.4911 135.368 16.4911C133.841 16.4911 132.818 15.6573 132.501 14.045H142.927C142.99 13.6103 143.027 13.1868 143.027 12.7633C143.028 8.63988 139.894 5.40747 135.368 5.40747C130.961 5.40747 127.741 8.57611 127.741 12.8854C127.741 17.1795 130.987 20.3851 135.368 20.3851ZM132.587 11.3639H138.263C137.839 9.95908 136.827 9.20109 135.367 9.20109C133.958 9.20109 132.978 9.96767 132.587 11.3639Z" fill="black"/>
</svg>
